<svg width="320" height="89" viewBox="0 0 320 89" xmlns="http://www.w3.org/2000/svg"><g stroke="#000"><path d="M70.56 46.4c-.32.192-.128-.96-.32-.704-.32.448-1.344 1.024-1.664 1.472-.576.832-2.368 2.112-2.944 2.88l-.96 1.152c-.832.96-2.624 2.24-3.584 3.072-1.216 1.088-4.224 2.368-5.632 2.56-.448.064-2.048.704-2.368.32-.192-.256-.384-.512-.512-.768L52 55.104c-.192-.448-.256-.896-.192-1.344.064-.384.064-.704.192-1.024.32-1.088.64-2.176 1.152-3.136l1.536-3.2c.384-.832.832-1.6 1.344-2.304.512-.704 1.152-1.344 1.536-2.176l.256-.192c-.064.192-.064.32-.064.384-.512 1.216-.832 2.432-1.216 3.712l-.192.896c-.064.32.064.512.256.64l.192.128c.384.192.832.384 1.152.704.064.064.192.128.384.128.128 0 .256-.064.384-.064.384-.064.64-.32.832-.768a17.763 17.763 0 001.088-3.264c.064-.32.064-.64.064-.96a8.53 8.53 0 00-.192-1.792c-.128-.384-.192-.768-.256-1.152l.384-.576c-.064-.064 0-.192-.064-.256-.128-.256-.192-.512-.064-.832.064-.32-.064-.512-.256-.704-.192-.128-.32-.064-.512.064-.064.064-.128.064-.192.064s-.128-.064-.192-.064c-.64-.448-1.344-.704-2.112-.64 0 .064 0 .064-.064 0-.448-.064-.96.064-1.472.32-.192.064-.384.128-.576.128-.448 0-.896.128-1.344.448-.832.576-1.536 1.28-2.304 1.92-.64.512-1.152 1.216-1.664 1.984l-.512.768c-.64 1.216-1.408 2.368-1.856 3.776l-.512 1.344c-.192.64-.32 1.28-.384 1.92a13.92 13.92 0 000 3.264c.192 1.856.832 3.2 2.048 4.16.768.576 1.6 1.024 2.496 1.408.832.32 2.752 1.152 3.648.96.576-.192 2.688.064 3.264 0 .512 0 2.816-1.216 3.264-1.472.768-.448 1.472-.96 2.176-1.6l2.048-2.176c.448-.512.832-1.152 1.28-1.792.064 0 .064-.128.064-.192A12.31 12.31 0 0168 50.56l1.152-1.6c.384-.448 1.28-1.984 1.408-2.56zM91.104 46.848c-.832.832-2.112 2.944-2.944 3.776l-1.024.896-1.408.832c-.384.256-.832.448-1.216.64-.448.192-.896.256-1.344.32a.672.672 0 01-.576-.32 8.023 8.023 0 01-.576-1.6c-.064-.448 0-.896.192-1.344l.896-1.792c.064-.128.128-.192.128-.32-.064-.64-.128-1.28-.576-1.856l-.384-.384c-.384-.448-.832-.512-1.408-.448l-1.344 2.176c-.32.512-.704.96-1.088 1.408l-.512.576c-.256.448-.576.768-.96 1.088a19.898 19.898 0 00-2.112 1.856l-.256.192c0-.128-.064-.192 0-.256a7.037 7.037 0 01.768-2.112c.064-.128.128-.256.256-.384l.64-.896c.512-.704.96-1.408 1.536-2.048l.768-.832c.576-.832 1.408-1.472 2.112-2.176v-.064c.512-.384 1.024-.768 1.6-1.024.576-.32.704-.704.576-1.28l-.192-.512c-.256-.448-.704-.768-1.088-1.152a.489.489 0 00-.32-.128c-.32 0-.576-.32-.896-.32 0 0-.064 0-.128-.064-.128-.256-.384-.256-.704-.32-.128 0-.256-.064-.384-.128-.448-.128-.96-.128-1.344-.32H77.6c-.448 0-.832.064-1.216.128-.192 0-.448.064-.576.128a10.627 10.627 0 00-2.432 1.984c-.96 1.152-1.984 2.368-2.816 3.648-.064.064-.128.128-.128.192-.64.704-1.088 1.536-1.536 2.368-.448.896-.64 1.856-.512 2.88.192 1.984 1.216 3.392 3.072 4.16.32.128.64.256.96.448.832.448 1.728.448 2.624.192.512-.192 1.024-.256 1.408-.768 0 0 .064-.064.128-.064l.704-.448c.384-.32.832-.576 1.344-.832.384.512.96.832 1.536 1.088l.32.192c.64.512 1.408.64 2.176.896h.576c.512-.128 1.024-.128 1.472-.32.512-.192 1.024-.192 1.6-.32.448-.128.832-.32 1.216-.64.384-.384.896-.768 1.28-1.216.064-.128.192-.192.32-.256.32-.192.576-.384.768-.768.064-.192.256-.32.384-.448l.704-.832c.128-.064.192-.256.384-.32.32-.256.96-1.792 1.024-2.24-.32-.32-.64-.576-1.088-.64zM103.84 41.216c.512-.32.96-.448 1.408-.704.384-.192.704-.448.832-.832 1.408-1.92 2.432-3.904 3.328-6.08.384-1.088.576-1.856.192-2.944.256-1.152-.384-1.984-.576-2.816-.192-.256-.448-.384-.448-.576-.64-.576-1.344-1.152-2.304-1.28-.256.064-.512-.064-.768-.128-.832-.32-2.56.192-3.328.896-.576.448-1.6 1.408-2.048 1.856-.576.128-1.024.576-2.048 2.24-.256.384-2.112 2.88-2.304 3.264-.128.192 1.536-1.792 1.408-1.6-2.688 5.184-6.4 13.696-6.656 14.976 0 .32-.256.512-.32.832-.896 2.24-1.024 2.496-1.472 4.096-.128.704-.32 1.344-.576 2.112-.064.192-.128.384-.128.512-.128.384-.32.704-.32 1.088-.128.256-.192.576-.256.96-.128.384-.128.704-.192 1.152-.448 1.536-.832 3.2-1.216 4.8-.192 1.152-.512 2.24-.32 3.392 0 .064-.064.128-.064.128-.128 1.152-.064 2.24-.064 3.136 0 .896.064 1.792.256 2.56l.32.768c0 .832.384 1.6.832 2.048.256.256.64.64.832.768.384.32.896.512 1.344.32l.512-.128c.192.064.192-.128.32-.128.192 0 .512-.128.768-.064.384-.064.704-.32.896-.832.512-.96.896-1.728 1.344-2.816l.192-.384c.256-.256.512-.576.512-1.088v-.448c.448-.64.704-1.536 1.024-2.496.064-.448.256-1.024.384-1.536.192-.32.192-.64.192-1.024 0-.064 0-.192.064-.256.064 0 .128-.128.192-.128 0-.064.064-.064.064 0 .064-.448.192-.768.32-1.088-.064-.448.064-.832.128-1.152 0-.512.192-.96.32-1.472 0-.32.064-.768.192-1.152 0-.832 0-1.408.064-2.176-.064-.256 0-.512 0-.832-.064-1.28-.064-2.688-.192-4.16-.384-2.624 5.12 1.856 11.52-.448l1.216-.768c2.56-1.984 4.416-5.312 1.6-3.84-.832-.064-2.24 3.008-3.008 3.008-.768.448-.768.512-.768.512-.064 0-.256.064-.832.256l-.96.256c-.768.256-1.664-.32-2.624-.32-.576.128-2.816-.96-3.584-.832-.96-.256-.512-1.472-.192-2.24.832-2.176.32-1.28 1.216-3.392.448-.832.768-1.856 1.088-2.752.576-1.344 1.216-2.752 1.664-4.352.192-.64.448-1.216.576-1.728l1.408-3.84c.256-.768.64-1.536.896-2.304 1.024-2.24 1.664.192 1.536 1.472-.192 1.728-.576 3.072-1.152 4.544-.512 1.024-1.088 2.176-1.6 3.328-.256.512-.512 1.088-.64 1.856zm-10.304 15.68c.192-.96.96-3.328.768.512-.192 2.048-.128 1.728-.448 3.712-.192 1.664-.384 3.392-.64 4.928a15.24 15.24 0 01-.32 1.664 34.768 34.768 0 00-.704 2.432c-.384.96-.128.512-.512 1.408-.128.32-.576 1.984-1.216.704-.064-.192-.128-.32-.128-.512 0-.512.064-1.152.064-1.792 0-.448.192-.96.32-1.408.128-.384.192-.832.256-1.152.128-.64.32-1.088.32-1.664.064-.32.192-.576.256-.832.064-.384.32-.576.192-1.024.192-.512.32-1.024.448-1.536.064-.576.256-1.152.384-1.792 0-.448.064-.832.192-1.216l.576-1.856zm4.672-23.872c-.256.576-1.664 2.752-2.048 3.456-.192.512-.384 1.152-.768 1.792v-.192c.128-.384 0-.576.192-1.024.192-.576.384-.832.576-1.664a27.794 27.794 0 014.352-6.464c.256-.512.576-.64.896-.896.32-.32.448-.384.96-.768l-.576.64c0 .32-.384.448-.512.576-.832.896-1.792 2.048-2.88 3.456 0 0-.128 0 .064.256-.768 1.216-1.728 2.368-2.304 3.648 0 0-.064.128-.064.384.32-.192.448-.64.512-.96.128-.128 1.408-2.048 1.536-2.432zm-2.752 3.84c-.192.768-.384 1.408-.704 1.984-.384.832-.704 1.856-1.216 2.752v-.384c.448-1.536 1.088-3.072 1.728-4.224.064-.064.192-.128.192-.128zm.192 28.096c-.064 0-.064.128-.064.192h.064zm0 0c0-.064 0-.064.064-.064 0-.064-.064-.064-.064-.064zM115.04 46.208c.192-.192.384-.128.448.064.32.512.576 1.088.832 1.6.064.192.192.32.064.576 0 .064.064.256.128.32.384.192.704.768 1.216.704 0 0 .064 0 .064.064.128.256.32.192.512.256.384.064.832 0 1.216-.192a1.868 1.868 0 001.152-.96c.256-.448.512-.832.64-1.28.192-.512.448-.896.704-1.344.448-.768.832-1.6.96-2.496.192-.832.128-1.536 0-2.304-.064-.192-.128-.448-.256-.576-.448-.384-.704-1.024-1.024-1.6-.128-.256-.256-.512-.448-.64-.576-.384-.896-1.024-1.536-1.344-.128-.128-.192-.384-.384-.512-.128-.128-.384-.064-.576-.256-.192-.32-.512-.256-.832-.128l-.64.32c-1.024.64-1.984 1.472-2.88 2.432a17.676 17.676 0 00-2.368 2.944c-.704 1.024-1.28 2.112-1.792 3.264-.192.448-.448.832-.448 1.408.32-.576.576-1.088.768-1.664.128-.384.32-.512.64-.704.064.576.064.576-.128.96-.832 1.792-1.344 3.712-1.344 5.696.064.96.128 1.856.448 2.688.192.512.512 1.024.896 1.344 1.024.896.64 1.6 2.88 2.496.832.32 3.328 1.408 4.224 1.28a9.778 9.778 0 002.304-.448l.576-.192c.704-.128 1.408-.448 2.048-.832.384-.256.768-.448 1.152-.64l.768-.512c.32-.192.576-.448.896-.704.64-.512 1.28-1.024 1.856-1.664.32-.384.704-.768 1.088-1.088.256-.256.448-.448.64-.768-.128-.064-.128-.128-.192-.192.064-.32.384-.384.448-.768l-.512.192.256-.384.64-.768c.256-.512.576-.896.96-1.344.128-.128.256-.32.32-.512.256-.512.384-1.024.512-1.6-.384.128-.576.448-.768.768-.576.832-1.216 1.536-1.92 2.24l-1.152 1.28-.192.192c-1.088.896-2.112 1.856-3.2 2.688-1.408 1.088-2.88 1.92-4.416 2.368-.32.064-2.176.384-2.496.32-1.024-.064-2.112-1.216-3.008-2.112-.192-.256-.704-1.664-.896-1.92-.128-.32-.256-.704-.256-1.152 0-.448 0-.832-.064-1.28-.064 0-.128-.064-.256-.128l.192-1.344h.128c0 .128 0 .32-.064.512h.448v-.064c-.064-.064-.128-.064-.256-.064.064-.384.064-.448.192-.512.192-.064.256-.128.32-.384 0-.192.128-.256.192-.32.128-.064.256-.192.256-.32 0-.384.256-.64.32-.96zm6.208-9.92c.128-.064.192-.064.256-.064 1.088-.576 2.048-1.344 2.944-2.176.768-.704 1.536-1.536 2.24-2.368.192-.32.384-.576.64-.768.064-.192.064-.256-.064-.32-.128-.192-.384-.32-.448-.512 0-.064-.128-.128-.128-.064-.128-.128-.256-.256-.384-.32-.64-.448-1.664-.192-2.112.448l-.768 1.216c-.192.448-.32.832-.384 1.28-.064.256-.064.512-.192.704-.128.256-.192.512-.384.704-.32.32-.576.768-.768 1.088-.128.128-.256.32-.192.512 0 .128 0 .32-.192.512-.064 0-.064.064-.064.128zm-2.752 5.376c.96-.768 3.008-1.344 1.984 1.088-.384 1.088-.64 1.28-1.088 2.368-.256.448-.576.896-1.024 1.024-.512.064-1.024.128-1.408-.32-.128-.192-.384-.32-.576-.448-.32-.192-.384-.512-.128-.96l.448-.704c.576-.704 1.088-1.536 1.792-2.048zm-7.616 11.2c.192.32.192.704.384 1.088.128.32.32.576.512.896-.128 0-.192.064-.192 0-.192-.064-.32-.128-.448-.256-.192-.256-.384-.448-.512-.704-.704-1.344-.768-2.88-.512-4.544l.192-.896c.064-.256.192-.512.384-.896V48c0 .192-.064.384-.128.576-.256.96-.256 1.856-.256 2.816 0 .064-.064.128 0 .192.128.832.256 1.664.576 2.304 0 .064.064.064.128.128.128-.256-.064-.384-.064-.576l-.192-.512s.064-.064.128-.064zm0-4.224c.192.384.128.832.064 1.28l-.192 1.984c-.064-.064-.128-.064-.128-.128-.128-.96-.192-1.92.128-2.944 0-.064.064-.128.128-.192zM125.92 74.88c-.32.064-.448 0-.512-.256.32.64.704 1.088 1.472 1.28.192.064.384.128.704.128.192 0 .384.192.704.192.064.064.128.064.384.064.64.064 1.408-.064 2.112-.32.384-.128.704-.256 1.088-.32.64-.192 1.408-.448 1.984-.896a.987.987 0 01.448-.448c.384-.192.64-.32.832-.512.512-.32.832-.576 1.28-.704.768-.512 1.344-1.024 1.984-1.728.192-.064.192-.064.192-.128.192-.32.512-.448.576-.576.384-.448.704-.896.96-1.152.064-.64.576-.832 1.024-1.216.064-.128.256-.192.32-.256 0-.256-.064-.384-.064-.576.064-.384.448-.512.576-.896.128-.064.32-.256.384-.384.064-.512.448-.896.704-1.408.384-.192 1.024-1.536.96-1.856-.128-.512.32-.96.512-1.408.192-.32.384-.448.448-.832.32-.32.576-.704.512-1.28 0-.128.192-.448.256-.64.384-1.024.512-1.92.576-2.88.128-1.024-.064-.576-.128-1.6-.128-.448-.256-1.024-.448-1.536-.128-.576-.512-1.024-.896-1.6-.128-.192-1.152-.832-1.536-.96-.064-.192-.064-.512.192-.576.192-.256.384-.448.512-.704l2.688-2.368 1.152-1.408c.64-1.152 1.152-2.304 1.664-3.456.576-.896.64-1.92.384-2.688-.064-.768-.128-1.792-.832-2.432-.576-1.152-1.92-1.472-3.072-1.984-.192-.064-.32-.064-.512-.064-.512 0-1.216 0-1.728.128-1.152.256-2.176.64-3.2.896-1.28.384-2.688 1.024-3.84 1.6-1.856.896-3.712 1.536-5.696 2.176-.512.064-1.344.256-2.048.128l-.064.128v.384c.128.384.384 1.088.64 1.536.512 1.216 2.432 1.28 3.776 1.024 2.816-2.048 5.376-4.48 8.896-5.568 1.28-.768 2.816 1.024 1.408 3.136-2.752 3.136-6.4 5.888-9.152 9.088 0 .064-.128.192-.192.32-.96 1.216-.96 1.216-2.432 1.536-.256.32-.448.32-.768.512-.256.384 0 .512.32.576.128.192.448.512.448.768.512.576 1.408.704 2.304.704.704 0 1.28.448 2.048 0 .576.064 1.024 0 1.6-.128.64-.128 1.024 0 1.6 0 .704.128 2.368.256 2.432.704.064.384.064.768-.064 1.216 0 1.088-.064.896-.32 2.176-.512 1.216-.896 2.496-1.408 3.776 0 0 0 .128-.064.256l-.704 1.152c-.192.512-.512 1.024-.704 1.664-.512.768-.96 1.408-1.6 2.176-.512.768-1.152 1.472-1.856 2.24-.32.448-.832 1.024-1.344 1.6-.512.448-1.152.896-1.856 1.344-.832.448-1.536.64-2.24.448h-.384c-.512 0-.576-.128-.576-.448.064-.448.064-.896.256-1.216.064-.704.32-1.344.704-1.856.512-.896 1.088-1.92 1.664-2.688 1.28-1.344 2.24-2.816 3.52-4.096l-.192.192c-.128.064-.384.256-.448.256-.192.064-.448.192-.576.32-.128.256-.448.448-.64.768-.064.064-.256.128-.32.064.512-.64.96-1.344 1.6-1.856.512-.448.896-.768 1.344-1.344.192-.256.512-.512.64-.704.704-.448 1.152-1.088 1.792-1.6.384-.256.512-.64.768-1.024.256-.192.384-.512.256-.96-.768.576-1.664.96-2.304 1.6-1.536.896-2.816 1.92-4.032 3.072-.64.64-1.344 1.216-1.984 1.792l-1.408 1.472c-1.664 1.792-3.072 3.84-4.032 5.888-.384.832-.64 1.472-.96 2.304-.128.448 0 .768.256 1.088.256.128.384.384.448.768l.256.576v-.064c.256-.064.384 0 .576.384zm2.624-7.04c.512-.896 1.216-1.792 1.984-2.56.32-.512.704-.704 1.088-1.088.192.192-.128.256-.192.384-.576.64-1.088 1.216-1.6 1.92-.384.256-.576.64-.768 1.024-.128.192-.32.256-.512.32zm0 0c0 .32-.192.704-.576 1.024.064-.256.064-.256.576-1.024zm6.336-5.952l.256-.192c0-.064.32-.128.256-.256zm-7.68 8.128h.064c-.064 0-.064 0-.064.064zM156.704 41.536c-.192.384-.256.64-.192.896.128.448-.064.704-.256 1.088 0 0-.128.192-.128.32-.384.896-1.536 2.304-2.048 3.584-.768 1.28.576-.064.576-.064-.32.448-.384.832-.704 1.28-.064.064-.128.32-.192.32-.448.064-.32.384-.448.448 0 .384-.128.704-.192 1.024-.256.512-.128 1.984-.32 2.752 0 .32 0 .768.128 1.152 0 .832.32 1.728.64 2.56.576.64 1.216 1.152 1.856 1.408.96.384 1.792 1.28 2.688.96 2.816 1.088 7.168-2.752 7.808-3.584 2.176-1.28 3.136-4.8 4.48-7.232-.896-.192-.192-1.088-.512-1.728-.192.32-.192.32-.192.384-.32 1.024-1.024 1.792-1.6 2.624-3.072 3.264-1.152 3.968-6.464 5.888-.384.064-.704.192-1.024-.064-.384-.128-.704-.384-.96-.512-.192-.256-.448-.512-.512-.96-.064-.576.192-3.84.192-4.48.064-1.152.064-.896.576-2.176.064-.128.192-.32.192-.512.128-.64-1.024 1.792-.768 1.024.32-.576.576-1.344.832-1.92l.32-.96c.512-1.024.96-1.792 1.344-2.624.192-.64.128-1.088-.128-1.408-.256-.256-.896-.576-1.088-.832-.64-.384-2.24.768-2.944.896-.192.128-.32.192-.512.448l-.064.064c-.192.064-.256 0-.384-.064zm6.656-7.424c-.256-.448-.576-.768-1.024-.96-.256-.064-.576-.128-.832-.256-.064-.064-.128 0-.256.064s-.256.064-.256-.064c-.064-.064-.192-.064-.32 0-.128 0-.256.128-.384.256l-.384.576c-.192.384-.512.704-.512 1.088 0 .064-.192.192-.192.32-.192.32-.32.512-.448.832-.064.256-.192.448-.192.64l-.192.256c.256.064.448.064.704.064.192 0 .32 0 .512.128.256.128.512.192.896-.064.128-.128.32-.256.448-.192.32-.064.832-.32.96-.512l.64-.768c.128-.128.128-.256.128-.32.064-.256.192-.384.32-.576.128-.128.192-.32.384-.512zM183.264 45.568c1.408-1.472 1.152 1.6.896 2.944 0 .832-.064 1.6-.128 2.432.064 3.648 1.408 5.888 4.16 6.784 1.088.384 4.48.256 5.376-.128l.768-.256c.32-.192.704-.32.96-.576.576-.512 3.072-3.264 3.584-3.84.576-.64 1.216-1.984 1.792-2.816.192-.32.32-.64.384-.96 0-.32.064-.576.256-.832.192-.448.128.064.128-.384-.064-.384.064-.64 0-1.024-.064-.064-.064-.192-.064-.32-.256.256-.256.384-.384.576-.512.704-.512 1.152-1.024 1.92-.256.32-2.24 1.792-2.432 2.048-.896 1.152-3.584 3.264-4.8 4.032-.384.128-.64.32-.96.448-.64.32-2.752.768-2.88-.768-.128-1.152 0-3.968.384-5.312.32-1.216.448-1.92.704-3.136.256-.96.128-1.664 0-2.624 0-.384-.064-.64-.256-.96-.256-.448-.576-.832-1.152-.96-.768-.128-1.536-.064-2.368-.192h-.64c-.576.128-1.024.384-1.344.96l-1.216 1.28c-1.408 1.536-2.112 1.984-3.584 3.776-1.216 1.408-1.344 1.6-2.624 2.816-.832.448-1.408-.384-.576-1.728.704-1.024.448-.832.96-1.92 1.152-2.432 1.92-4.8 1.984-7.168.064-.704.064-1.344-.256-1.856l-.96-1.28c-.064-.128-.256-.32-.32-.32a3.202 3.202 0 01-1.728-1.152c-.128-.192-.448-.256-.768-.064 0 .192-.064.256-.064.448-.128.576-.384 1.152-.704 1.728-.32.768-.768 1.536-1.216 2.304-.704 1.216-1.536 2.56-2.24 3.904a78.26 78.26 0 00-2.112 4.8c-.576 1.152-1.024 2.304-1.472 3.52-.896 2.368-1.408 4.736-1.92 7.04-.256 1.344.32 2.368 1.28 2.688.384.064.832.064 1.28.192.704.064 1.408 0 2.112.192.192.064.704.064 1.024-.192.384-.192.64-.32.896-.32.32 0 .512-.064.832-.384.512-.64 1.472-4.736 2.112-5.376.064-.192.256-.448.512-.64.32-.32.576-.768.896-1.28.32-.576.64-1.024 1.088-1.472.704-.704 1.408-1.472 1.984-2.24.704-1.024 1.792-1.984 2.624-2.944.384-.448.896-.896 1.216-1.408zM210.656 45.888c-.384.768-3.904 5.568-3.904 3.904.32-1.792.448-1.856 1.152-3.584.384-1.088.96-2.112 1.408-3.2.576-1.152 1.216-2.304 1.856-3.456l1.216-2.24c.512-.832 1.088-1.664 1.6-2.624.192-.192.256-.512.448-.704.512-.384.896-.96 1.28-1.6.64-1.152 1.984-2.816 2.944-3.712l.896-.96c.32-.384.64-.512.96-.448l.768.256.512.192c.384.192.512.896.768.32.384-.96.128-2.112-.256-2.688-.576-2.56-5.12-8.576-7.936-6.4-1.152.896-2.176 2.048-3.136 3.392-1.536 1.984-2.88 4.352-4.16 6.784-1.088 1.92-1.984 3.84-2.944 5.824-2.048 6.4-7.104 18.816-4.992 26.432.064.96.384 1.728.896 2.176.256.32.576.576.768.896.192.064.256.256.384.256.448 0-.192-.064.32-.128.32-.064.64-.192.832 0h.384c.192-.256.256-.448.384-.576.448-.256.704-.96.768-1.536.064-.448.256-.896.32-1.28.128-.384.256-.704.32-1.088.064-.448.192-.768.384-1.152.448-.832 3.392-6.72 3.968-7.552.384-.576.896-1.088 1.344-1.6l3.264-4.032c.32-.32.576-.64.768-1.024.192-.384.512-.704.704-.832.96-1.6 3.84-3.584 5.248-1.216 0 .384 0 .768-.128 1.088-.128.448-.256.832-.448 1.28-.768 1.92-3.968 7.488-4.352 9.664-.768 6.08 5.056 5.632 7.168 3.648.192-.128 2.304-1.792 2.56-2.112.32-.576.768-1.088 1.152-1.6.32-.384 1.536-.768 1.728-1.28.128-.704.896-1.344 1.216-1.856.704-1.216.832-1.472 1.728-2.624.512-.896.896-1.984-.128-1.152-.768.64-1.152 1.792-1.728 2.56-.704.896-1.344.896-2.048 1.728-.064.128-2.304 1.664-2.368 1.728-.96.832-6.144 4.672-5.696.704.448-1.408 1.984-4.992 2.368-6.464.384-1.664 1.28-5.504.32-7.104-2.24-1.408-4.608-.896-6.72 1.024-.896.896-3.264 3.008-4.16 3.968zM231.904 45.376c-.064.192-.064.32-.256.384-.96 1.152-1.792 2.368-2.368 3.776-.576 1.152-.96 2.304-1.088 3.52-.128 1.216-.064 2.368.064 3.52l.576 1.728c.64 1.088 1.408 1.92 2.56 2.048.832.128 1.728.192 2.624-.064.192-.128.512-.256.64-.256.704-.192 1.28-.64 1.792-1.216.064-.192.256-.32.384-.384l.448-.32c.384-.256.64-.704.896-1.088.448-.576.896-1.152 1.216-1.92.448-1.088 1.024-2.112 1.216-3.2.064-.128.128-.192.128-.32s.192-.192.384-.192h.192c2.304 0 8.192.064 10.112-1.984.256-.256-.384-.384-.192-.704.064-.128.128-.384 0-.576l-.448.256-1.024.512c-3.072.512-4.288.064-7.424.256-.512 0-.896-.448-.704-.832.192-.704 0-1.408.064-2.176 0-.064-.064-.576-.064-.832-.128-.512-.128-.96-.192-1.536-.128-.64-.192-1.28-.384-1.856-.256-.448-.384-.896-.576-1.408-.32-.832-.704-1.408-1.28-1.92-.448-.256-.832-.64-1.216-.96-.32-.256-1.728-1.536-2.24-1.536-.704-.128-1.472-.064-2.048.32-.768.448-1.408.832-1.92 1.28-.256.064-.384.192-.448.32-.576 1.024-.896 2.048-.704 3.136.192 1.472.512 2.88 1.216 4.032.064.064.064.128.064.192zm7.616-1.216c.768 4.288-2.624 5.568-4.48 1.92-1.6-1.728-3.264-5.056-1.536-7.488.448-.448 1.856-1.792 2.624-1.152.448.256.768.512 1.152.832.384.192.576.512.832.768.448.384.704.896.896 1.536.192.704.32 1.28.448 2.048.192.448.192 1.024.064 1.536zm-4.544 8.192c.832-1.088 1.536-1.664 3.008-1.024-.192.448-.32 1.024-.64 1.536-.64 1.472-1.408 2.944-2.496 4.096l-.256.192c-.064.064-.064.064-.128.064-.32-.128-.576-.448-.704-.768-.064-.128-.192-.192-.064-.32 0-.32 0-.704.064-1.024.384-1.152.512-1.728 1.216-2.752zm6.656-7.04v.064c-.064-.256-.064-.192 0-.064zm.064.128s-.064 0-.064-.064c0 .064.064.064.064.064zM255.456 57.984c.064 0 .128-.064.192-.064l-.128-1.344c0-.448.064-.704.448-.896.384-.32.64-.704.768-1.28.064-.256.128-.512.256-.704l.192-.64c.128-.96.384-1.92.448-2.944.128-1.728.96-3.264 1.216-4.928.512-.704.768-1.472.96-2.368 0 0 .064-.128.064-.192l.832-1.6c.384-.896.832-1.728 1.216-2.56.192-.192.256-.512.448-.64.384-.32.512-.832.64-1.344.128-.192.256-.448.32-.704l1.024-1.856c.512-1.408 1.024-2.88 1.664-4.224.704-1.408.96-2.944 1.472-4.416.192-.512.064-1.024-.32-1.536-.576-.768-1.28-1.28-2.048-1.728-.512-.256-.96-.576-1.472-.64-.768-.064-1.6-.256-2.496-.32a.666.666 0 00-.64.448l-1.984 5.888c-.448 1.408-.704 2.816-1.152 4.224l-2.56 9.536v1.792c0 1.152-.448 2.24-.448 3.392l-.256 2.816c-.064 2.688.384 5.312.96 7.872.064.32.256.576.384.96zm-.448 7.168c.128.576.32.576.768.32.064-.064.256-.192.32-.192a3.98 3.98 0 002.24-1.6c.576-1.024 1.024-1.984.768-3.264-.192-.64-.384-.96-.96-1.024-.256 0-.512-.128-.896-.128-.32 0-.768.192-1.152-.064-.064-.064-.384 0-.512.064-.448.192-.64.576-.704 1.088-.064.832-.192 1.664-.32 2.688z" stroke-width=".064"/></g></svg>