<svg width="320" height="107" viewBox="0 0 320 107" xmlns="http://www.w3.org/2000/svg"><g stroke="#000"><path d="M50.583 55.01c-.38.227-.152-1.139-.38-.835-.379.53-1.593 1.214-1.972 1.745-.683.986-2.807 2.504-3.49 3.414L43.602 60.7c-.986 1.138-3.11 2.656-4.249 3.642-1.441 1.29-5.008 2.808-6.677 3.035-.531.076-2.428.835-2.808.38-.227-.304-.455-.607-.607-.91l-.683-1.518c-.227-.532-.303-1.063-.227-1.594.076-.455.076-.834.227-1.214.38-1.29.76-2.58 1.366-3.718l1.821-3.794c.456-.986.987-1.897 1.594-2.731.607-.835 1.366-1.594 1.82-2.58l.304-.228c-.075.228-.075.38-.075.455-.607 1.442-.987 2.884-1.442 4.401l-.228 1.063c-.076.379.076.607.304.758l.227.152c.456.228.987.455 1.366.835.076.076.228.152.455.152.152 0 .304-.076.456-.076.455-.076.759-.38.986-.91a21.06 21.06 0 001.29-3.87c.076-.38.076-.76.076-1.139 0-.683-.076-1.442-.228-2.124-.151-.456-.227-.911-.303-1.366l.455-.683c-.076-.076 0-.228-.076-.304-.152-.303-.227-.607-.076-.986.076-.38-.076-.607-.303-.835-.228-.152-.38-.076-.607.076-.076.076-.152.076-.228.076-.076 0-.152-.076-.227-.076-.76-.531-1.594-.835-2.504-.759 0 .076 0 .076-.076 0-.532-.076-1.139.076-1.746.38-.227.076-.455.151-.682.151-.532 0-1.063.152-1.594.532-.986.683-1.821 1.517-2.732 2.276-.758.607-1.365 1.442-1.972 2.352l-.607.91c-.76 1.442-1.67 2.808-2.2 4.478l-.608 1.593c-.228.759-.38 1.518-.455 2.276a16.504 16.504 0 000 3.87c.227 2.2.986 3.794 2.428 4.932.91.683 1.897 1.214 2.96 1.67.986.379 3.262 1.365 4.324 1.138.683-.228 3.187.076 3.87 0 .607 0 3.339-1.442 3.87-1.745a15.007 15.007 0 002.58-1.897l2.428-2.58c.531-.607.986-1.366 1.517-2.125.076 0 .076-.152.076-.227.38-.835.835-1.594 1.366-2.353l1.366-1.897c.455-.53 1.517-2.352 1.67-3.035zM74.94 55.54c-.986.987-2.504 3.49-3.49 4.477l-1.214 1.062-1.67.987c-.455.303-.986.531-1.441.759-.531.227-1.063.303-1.594.379a.797.797 0 01-.683-.38 9.513 9.513 0 01-.683-1.896 2.93 2.93 0 01.228-1.594l1.062-2.124c.076-.152.152-.228.152-.38-.076-.759-.152-1.517-.683-2.2l-.455-.455c-.455-.532-.986-.608-1.67-.532l-1.593 2.58c-.38.607-.834 1.138-1.29 1.67l-.607.682c-.303.532-.683.911-1.138 1.29a23.59 23.59 0 00-2.504 2.2l-.303.229c0-.152-.076-.228 0-.304.151-.835.455-1.67.91-2.504.076-.152.152-.304.304-.455l.758-1.063c.607-.834 1.139-1.669 1.822-2.428l.91-.986c.683-.987 1.67-1.745 2.504-2.58v-.076c.607-.455 1.214-.91 1.897-1.214.683-.38.835-.835.683-1.517l-.228-.608c-.303-.53-.834-.91-1.29-1.365a.58.58 0 00-.38-.152c-.378 0-.682-.38-1.061-.38 0 0-.076 0-.152-.075-.152-.304-.455-.304-.835-.38-.152 0-.303-.076-.455-.151-.531-.152-1.138-.152-1.593-.38h-.228c-.531 0-.987.076-1.442.152-.227 0-.531.076-.683.152a12.599 12.599 0 00-2.883 2.352c-1.138 1.366-2.352 2.807-3.339 4.325-.076.076-.152.152-.152.228-.758.834-1.29 1.82-1.82 2.807-.532 1.062-.76 2.2-.608 3.415.228 2.352 1.442 4.021 3.643 4.932.379.151.758.303 1.138.53.986.532 2.048.532 3.11.228.608-.227 1.215-.303 1.67-.91 0 0 .076-.076.152-.076l.834-.531c.456-.38.987-.683 1.594-.986.455.607 1.138.986 1.821 1.29l.38.227c.758.607 1.669.759 2.58 1.062h.682c.607-.151 1.214-.151 1.745-.379.607-.228 1.214-.228 1.897-.38a3.78 3.78 0 001.442-.758c.455-.455 1.062-.91 1.518-1.442.075-.152.227-.228.379-.303.38-.228.683-.456.91-.91.076-.229.304-.38.456-.532l.834-.987c.152-.075.228-.303.456-.379.38-.303 1.138-2.125 1.214-2.656-.38-.379-.759-.683-1.29-.758zM90.04 48.863c.607-.38 1.138-.531 1.67-.835.455-.227.834-.53.986-.986 1.67-2.276 2.883-4.629 3.945-7.209.456-1.29.683-2.2.228-3.49.304-1.366-.455-2.352-.683-3.339-.227-.303-.53-.455-.53-.682-.76-.683-1.594-1.366-2.733-1.518-.303.076-.607-.076-.91-.152-.987-.38-3.035.228-3.946 1.062-.683.532-1.897 1.67-2.428 2.201-.683.152-1.214.683-2.428 2.656-.304.455-2.504 3.414-2.732 3.87-.151.227 1.821-2.125 1.67-1.897-3.187 6.146-7.588 16.238-7.892 17.755 0 .38-.303.607-.38.987-1.061 2.655-1.213 2.959-1.744 4.856-.152.834-.38 1.593-.683 2.504-.076.227-.152.455-.152.607-.152.455-.38.834-.38 1.29-.151.303-.227.683-.303 1.138-.152.455-.152.835-.227 1.366-.532 1.82-.987 3.794-1.442 5.69-.228 1.366-.607 2.656-.38 4.022 0 .076-.075.152-.075.152-.152 1.366-.076 2.656-.076 3.718 0 1.062.076 2.125.303 3.035l.38.91c0 .987.455 1.898.986 2.429.304.303.759.759.986.91.456.38 1.063.607 1.594.38l.607-.152c.228.076.228-.152.38-.152.227 0 .606-.152.91-.076.455-.076.835-.38 1.062-.986.607-1.138 1.062-2.049 1.594-3.339l.227-.455c.304-.304.607-.683.607-1.29v-.531c.531-.759.835-1.821 1.214-2.96.076-.53.304-1.213.456-1.82.227-.38.227-.76.227-1.215 0-.075 0-.227.076-.303.076 0 .152-.152.228-.152 0-.076.076-.076.076 0 .075-.531.227-.91.379-1.29-.076-.53.076-.986.152-1.366 0-.607.227-1.138.38-1.745 0-.38.075-.91.227-1.366 0-.986 0-1.669.076-2.58-.076-.303 0-.606 0-.986-.076-1.517-.076-3.187-.228-4.932-.455-3.111 6.07 2.2 13.658-.531l1.442-.91c3.035-2.353 5.235-6.299 1.897-4.553-.987-.076-2.656 3.566-3.566 3.566-.911.531-.911.607-.911.607-.076 0-.304.076-.986.303l-1.139.304c-.91.303-1.972-.38-3.11-.38-.684.152-3.34-1.138-4.25-.986-1.138-.303-.607-1.745-.227-2.656.986-2.58.379-1.517 1.441-4.021.531-.987.91-2.2 1.29-3.263.683-1.593 1.442-3.263 1.973-5.16.228-.758.531-1.441.683-2.048l1.67-4.553c.303-.91.758-1.821 1.062-2.732 1.214-2.655 1.972.228 1.82 1.745-.227 2.05-.682 3.643-1.365 5.388-.607 1.214-1.29 2.58-1.897 3.946-.304.607-.607 1.29-.759 2.2zm-12.216 18.59c.227-1.138 1.138-3.945.91.607-.227 2.428-.152 2.049-.531 4.401-.228 1.973-.455 4.022-.759 5.843a18.069 18.069 0 01-.38 1.973 41.22 41.22 0 00-.834 2.883c-.455 1.138-.152.607-.607 1.67-.152.379-.683 2.352-1.442.834-.075-.228-.151-.38-.151-.607 0-.607.076-1.366.076-2.125 0-.53.227-1.138.379-1.669.152-.455.228-.986.303-1.366.152-.758.38-1.29.38-1.973.076-.379.228-.682.303-.986.076-.455.38-.683.228-1.214.228-.607.38-1.214.531-1.821.076-.683.304-1.366.455-2.125 0-.53.076-.986.228-1.441l.683-2.2zm5.539-28.302c-.304.682-1.973 3.262-2.428 4.097-.228.607-.456 1.366-.91 2.125v-.228c.15-.455 0-.683.227-1.214.227-.683.455-.987.683-1.973a32.952 32.952 0 015.16-7.664c.303-.607.682-.758 1.062-1.062.38-.38.53-.455 1.138-.91l-.683.758c0 .38-.455.531-.607.683-.987 1.062-2.125 2.428-3.415 4.098 0 0-.151 0 .076.303-.91 1.442-2.048 2.808-2.731 4.325 0 0-.076.152-.076.455.38-.227.53-.758.607-1.138.152-.151 1.67-2.428 1.82-2.883zM80.1 43.703c-.228.91-.455 1.67-.835 2.353-.455.986-.834 2.2-1.441 3.262v-.455c.53-1.821 1.29-3.642 2.048-5.008.076-.076.228-.152.228-.152zm.228 33.31c-.076 0-.076.153-.076.229h.076zm0 0c0-.075 0-.075.075-.075 0-.076-.075-.076-.075-.076zM103.319 54.782c.227-.228.455-.152.53.075.38.607.684 1.29.987 1.897.076.228.228.38.076.683 0 .076.076.304.152.38.455.227.835.91 1.442.834 0 0 .076 0 .076.076.151.304.379.228.607.304.455.076.986 0 1.441-.228a2.215 2.215 0 001.366-1.138c.304-.531.607-.987.759-1.518.228-.607.531-1.062.835-1.593.53-.91.986-1.897 1.138-2.96.227-.986.151-1.82 0-2.731-.076-.228-.152-.531-.304-.683-.531-.455-.834-1.214-1.214-1.897-.152-.303-.303-.607-.531-.759-.683-.455-1.062-1.214-1.821-1.593-.152-.152-.228-.455-.455-.607-.152-.152-.456-.076-.683-.304-.228-.379-.607-.303-.987-.151l-.758.379c-1.215.759-2.353 1.745-3.415 2.883a20.957 20.957 0 00-2.808 3.49c-.834 1.215-1.517 2.505-2.124 3.87-.228.532-.531.987-.531 1.67.38-.683.683-1.29.91-1.973.152-.455.38-.607.76-.835.075.683.075.683-.153 1.139-.986 2.124-1.593 4.4-1.593 6.753.076 1.138.152 2.2.531 3.187.228.607.607 1.214 1.062 1.593 1.214 1.062.76 1.897 3.415 2.96.986.379 3.946 1.669 5.008 1.517.91-.076 1.82-.228 2.731-.531l.683-.228c.835-.152 1.67-.531 2.428-.986.456-.304.911-.531 1.366-.759l.91-.607c.38-.228.684-.531 1.063-.835.759-.607 1.518-1.214 2.2-1.973.38-.455.835-.91 1.29-1.29.304-.303.532-.53.76-.91-.152-.076-.152-.152-.228-.228.076-.38.455-.455.53-.91l-.606.227.303-.455.76-.91c.303-.607.682-1.063 1.137-1.594.152-.152.304-.38.38-.607.303-.607.455-1.214.607-1.897-.456.152-.683.531-.91.91-.684.987-1.443 1.822-2.277 2.656l-1.366 1.518-.228.228c-1.29 1.062-2.504 2.2-3.794 3.187-1.669 1.29-3.414 2.276-5.235 2.807-.38.076-2.58.455-2.96.38-1.213-.076-2.503-1.442-3.566-2.505-.227-.303-.834-1.972-1.062-2.276-.152-.38-.304-.835-.304-1.366 0-.53 0-.986-.075-1.517-.076 0-.152-.076-.304-.152l.228-1.593h.151c0 .151 0 .379-.075.607h.53v-.076c-.075-.076-.151-.076-.303-.076.076-.455.076-.531.228-.607.227-.076.303-.152.38-.456 0-.227.151-.303.227-.379.152-.076.303-.228.303-.38 0-.455.304-.758.38-1.137zm7.36-11.762c.152-.076.228-.076.304-.076 1.29-.682 2.428-1.593 3.49-2.58.91-.834 1.821-1.82 2.656-2.807.227-.38.455-.683.758-.91.076-.228.076-.304-.075-.38-.152-.227-.456-.38-.532-.607 0-.076-.151-.152-.151-.076-.152-.151-.304-.303-.456-.38-.758-.53-1.972-.227-2.504.532l-.91 1.442c-.228.53-.38.986-.455 1.517-.076.304-.076.607-.228.835-.152.303-.228.607-.455.835-.38.379-.683.91-.91 1.29-.153.151-.304.379-.228.607 0 .151 0 .379-.228.607-.076 0-.076.075-.076.151zm-3.263 6.374c1.138-.91 3.567-1.593 2.352 1.29-.455 1.29-.758 1.518-1.29 2.808-.303.53-.682 1.062-1.214 1.214-.607.076-1.214.151-1.669-.38-.152-.227-.455-.38-.683-.53-.38-.229-.455-.608-.152-1.14l.532-.834c.683-.834 1.29-1.82 2.124-2.428zm-9.03 13.279c.228.38.228.835.456 1.29.152.38.38.683.607 1.062-.152 0-.228.076-.228 0-.227-.076-.379-.152-.53-.303-.228-.304-.456-.532-.608-.835-.834-1.593-.91-3.415-.607-5.387l.228-1.063c.076-.303.227-.607.455-1.062v.531c0 .228-.076.455-.152.683-.303 1.138-.303 2.2-.303 3.339 0 .076-.076.151 0 .227.152.987.303 1.973.683 2.732 0 .076.076.076.151.152.152-.304-.075-.456-.075-.683l-.228-.607s.076-.076.152-.076zm0-5.008c.228.455.152.986.077 1.517l-.228 2.353c-.076-.076-.152-.076-.152-.152-.152-1.138-.227-2.276.152-3.49 0-.076.076-.152.152-.228zM116.218 88.775c-.38.076-.531 0-.607-.303.38.758.835 1.29 1.745 1.517.228.076.456.152.835.152.228 0 .455.228.835.228.076.075.151.075.455.075.759.076 1.67-.075 2.504-.379.455-.152.835-.303 1.29-.38.759-.227 1.67-.53 2.352-1.062a1.17 1.17 0 01.531-.53c.455-.228.759-.38.987-.608.607-.38.986-.683 1.517-.835.91-.607 1.594-1.214 2.352-2.048.228-.076.228-.076.228-.152.228-.38.607-.531.683-.683.455-.531.835-1.062 1.138-1.366.076-.758.683-.986 1.214-1.441.076-.152.304-.228.38-.304 0-.303-.076-.455-.076-.683.076-.455.53-.607.683-1.062.151-.076.379-.304.455-.455.076-.607.531-1.063.835-1.67.455-.227 1.214-1.82 1.138-2.2-.152-.607.38-1.138.607-1.67.227-.379.455-.53.53-.986.38-.38.684-.835.608-1.518 0-.151.228-.53.303-.758.456-1.214.607-2.277.683-3.415.152-1.214-.076-.683-.151-1.897-.152-.53-.304-1.214-.532-1.82-.151-.684-.607-1.215-1.062-1.898-.152-.227-1.366-.986-1.82-1.138-.077-.228-.077-.607.227-.683.227-.303.455-.531.607-.835l3.187-2.807 1.365-1.67c.76-1.365 1.366-2.731 1.973-4.097.683-1.062.76-2.276.456-3.187-.076-.91-.152-2.124-.987-2.883-.683-1.366-2.276-1.745-3.642-2.352-.228-.076-.38-.076-.607-.076-.607 0-1.442 0-2.049.152-1.366.303-2.58.758-3.794 1.062-1.517.455-3.187 1.214-4.552 1.897-2.2 1.062-4.401 1.82-6.754 2.58-.607.076-1.593.303-2.428.151l-.076.152v.455c.152.456.456 1.29.76 1.822.606 1.441 2.883 1.517 4.476 1.214 3.339-2.429 6.374-5.312 10.547-6.602 1.518-.91 3.339 1.214 1.67 3.718-3.263 3.718-7.588 6.981-10.851 10.775 0 .076-.152.228-.228.38-1.138 1.441-1.138 1.441-2.883 1.82-.304.38-.531.38-.91.607-.304.456 0 .607.379.683.151.228.53.607.53.91.608.684 1.67.836 2.732.836.835 0 1.518.53 2.429 0 .682.075 1.214 0 1.897-.152.758-.152 1.214 0 1.896 0 .835.152 2.808.303 2.884.834.076.456.076.911-.076 1.442 0 1.29-.076 1.062-.38 2.58-.606 1.442-1.062 2.96-1.669 4.477 0 0 0 .152-.076.303l-.834 1.366c-.228.607-.607 1.214-.835 1.973-.607.91-1.138 1.67-1.897 2.58-.607.91-1.366 1.745-2.2 2.656-.38.53-.987 1.214-1.594 1.897-.607.53-1.366 1.062-2.2 1.593-.987.531-1.821.759-2.656.531h-.455c-.607 0-.683-.152-.683-.531.076-.531.076-1.062.303-1.442.076-.834.38-1.593.835-2.2.607-1.062 1.29-2.276 1.973-3.187 1.517-1.593 2.656-3.339 4.173-4.856l-.228.227c-.151.076-.455.304-.53.304-.228.076-.532.228-.684.38-.151.303-.53.53-.758.91-.076.076-.304.152-.38.076.607-.76 1.138-1.594 1.897-2.2.607-.532 1.063-.911 1.594-1.594.227-.304.607-.607.758-.835.835-.531 1.366-1.29 2.125-1.897.455-.303.607-.759.91-1.214.304-.228.456-.607.304-1.138-.91.683-1.973 1.138-2.732 1.897-1.82 1.062-3.338 2.276-4.78 3.642-.759.759-1.593 1.442-2.352 2.125l-1.67 1.745c-1.972 2.124-3.642 4.553-4.78 6.98a41.687 41.687 0 00-1.138 2.732c-.152.531 0 .91.304 1.29.303.152.455.456.53.91l.304.684v-.076c.304-.076.455 0 .683.455zm3.111-8.347c.607-1.062 1.442-2.124 2.352-3.035.38-.607.835-.834 1.29-1.29.228.228-.151.304-.227.456-.683.758-1.29 1.441-1.897 2.276-.456.304-.683.759-.91 1.214-.153.228-.38.304-.608.38zm0 0c0 .38-.227.835-.683 1.215.076-.304.076-.304.683-1.215zm7.512-7.056l.304-.228c0-.076.379-.152.303-.303zm-9.105 9.636h.076c-.076 0-.076 0-.076.076zM152.716 49.242c-.228.456-.304.76-.228 1.063.152.53-.076.834-.303 1.29 0 0-.152.227-.152.379-.456 1.062-1.821 2.732-2.428 4.25-.91 1.517.683-.077.683-.077-.38.531-.456.987-.835 1.518-.076.076-.152.38-.228.38-.53.075-.38.455-.53.53 0 .456-.153.835-.229 1.215-.303.607-.151 2.352-.379 3.262 0 .38 0 .91.152 1.366 0 .987.38 2.049.759 3.035.683.759 1.441 1.366 2.2 1.67 1.138.455 2.125 1.517 3.187 1.138 3.339 1.29 8.498-3.263 9.257-4.25 2.58-1.517 3.718-5.69 5.312-8.574-1.063-.227-.228-1.29-.607-2.048-.228.379-.228.379-.228.455-.38 1.214-1.214 2.124-1.897 3.11-3.642 3.87-1.366 4.705-7.664 6.982-.455.076-.834.227-1.214-.076-.455-.152-.834-.455-1.138-.607-.228-.304-.531-.607-.607-1.138-.076-.683.228-4.553.228-5.312.076-1.366.076-1.062.683-2.58.075-.152.227-.38.227-.607.152-.759-1.214 2.125-.91 1.214.38-.683.683-1.593.986-2.276l.38-1.138c.607-1.214 1.138-2.125 1.593-3.111.228-.76.152-1.29-.152-1.67-.303-.303-1.062-.683-1.29-.986-.759-.455-2.655.91-3.49 1.062-.228.152-.38.228-.607.531l-.076.076c-.228.076-.304 0-.455-.076zm7.891-8.801c-.303-.532-.683-.911-1.214-1.139-.304-.076-.683-.151-.986-.303-.076-.076-.152 0-.304.076s-.303.076-.303-.076c-.076-.076-.228-.076-.38 0-.152 0-.303.152-.455.303l-.455.683c-.228.456-.607.835-.607 1.29 0 .076-.228.228-.228.38-.228.379-.38.607-.531.986-.076.303-.228.531-.228.759l-.227.303c.303.076.53.076.834.076.228 0 .38 0 .607.152.304.152.607.228 1.062-.076.152-.152.38-.303.532-.228.379-.075.986-.379 1.138-.607l.759-.91c.151-.152.151-.304.151-.38.076-.303.228-.455.38-.682.152-.152.227-.38.455-.607zM184.205 54.023c1.67-1.745 1.366 1.897 1.063 3.49 0 .987-.076 1.897-.152 2.884.076 4.325 1.67 6.98 4.932 8.043 1.29.455 5.311.303 6.374-.152l.91-.304c.38-.227.835-.379 1.138-.683.683-.607 3.643-3.87 4.25-4.552.682-.759 1.441-2.352 2.124-3.339.228-.38.38-.759.455-1.138 0-.38.076-.683.304-.986.228-.532.152.075.152-.456-.076-.455.076-.759 0-1.214-.076-.076-.076-.227-.076-.38-.304.304-.304.456-.455.684-.607.834-.607 1.366-1.214 2.276-.304.38-2.656 2.125-2.884 2.428-1.062 1.366-4.25 3.87-5.69 4.78-.456.152-.76.38-1.139.532-.759.38-3.263.91-3.414-.91-.152-1.367 0-4.705.455-6.299.38-1.441.531-2.276.834-3.718.304-1.138.152-1.973 0-3.11 0-.456-.075-.76-.303-1.139-.304-.531-.683-.986-1.366-1.138-.91-.152-1.82-.076-2.807-.228h-.76c-.682.152-1.213.455-1.593 1.138l-1.441 1.518c-1.67 1.821-2.504 2.352-4.25 4.477-1.441 1.67-1.593 1.897-3.11 3.338-.987.532-1.67-.455-.683-2.048.834-1.214.53-.987 1.138-2.277 1.366-2.883 2.276-5.69 2.352-8.498.076-.835.076-1.594-.304-2.2l-1.138-1.518c-.076-.152-.303-.38-.38-.38a3.796 3.796 0 01-2.048-1.365c-.152-.228-.53-.304-.91-.076 0 .227-.076.303-.076.53-.152.684-.455 1.367-.835 2.05-.38.91-.91 1.82-1.442 2.731-.834 1.442-1.82 3.035-2.655 4.629a92.785 92.785 0 00-2.504 5.69c-.683 1.367-1.214 2.732-1.746 4.174-1.062 2.808-1.669 5.615-2.276 8.347-.303 1.593.38 2.807 1.518 3.187.455.075.986.075 1.517.227.835.076 1.67 0 2.504.228.228.076.835.076 1.214-.228.456-.227.76-.38 1.063-.38.379 0 .607-.075.986-.454.607-.76 1.745-5.615 2.504-6.374.076-.228.304-.531.607-.759.38-.38.683-.91 1.062-1.518.38-.682.76-1.214 1.29-1.745.835-.834 1.67-1.745 2.353-2.656.834-1.214 2.124-2.352 3.11-3.49.456-.531 1.063-1.062 1.442-1.67zM216.681 54.402c-.455.91-4.628 6.602-4.628 4.629.379-2.125.53-2.2 1.365-4.25.456-1.29 1.139-2.503 1.67-3.793.683-1.366 1.441-2.732 2.2-4.098l1.442-2.656c.607-.986 1.29-1.972 1.897-3.11.228-.228.303-.608.531-.835.607-.456 1.062-1.138 1.518-1.897.758-1.366 2.352-3.339 3.49-4.401l1.062-1.138c.38-.456.76-.607 1.139-.531l.91.303.607.228c.455.227.607 1.062.91.379.456-1.138.152-2.504-.303-3.187-.683-3.035-6.07-10.168-9.409-7.588-1.366 1.063-2.58 2.428-3.718 4.022-1.821 2.352-3.414 5.16-4.932 8.043-1.29 2.276-2.352 4.553-3.49 6.905-2.428 7.588-8.423 22.308-5.919 31.338.076 1.138.455 2.048 1.062 2.58.304.379.683.683.91 1.062.229.076.304.303.456.303.531 0-.227-.075.38-.151.379-.076.758-.228.986 0h.455c.228-.304.304-.531.456-.683.53-.304.834-1.138.91-1.821.076-.531.304-1.063.38-1.518.151-.455.303-.835.379-1.29.076-.531.228-.91.455-1.366.531-.986 4.022-7.967 4.705-8.953.455-.683 1.062-1.29 1.593-1.897l3.87-4.78c.38-.38.683-.76.91-1.215.228-.455.607-.834.835-.986 1.138-1.897 4.553-4.25 6.222-1.442 0 .455 0 .91-.152 1.29-.151.531-.303.987-.53 1.518-.911 2.276-4.705 8.878-5.16 11.457-.911 7.209 5.994 6.678 8.498 4.325.227-.151 2.731-2.124 3.035-2.504.38-.682.91-1.29 1.366-1.897.38-.455 1.82-.91 2.049-1.517.151-.835 1.062-1.594 1.441-2.2.835-1.442.987-1.746 2.049-3.112.607-1.062 1.062-2.352-.152-1.365-.91.758-1.366 2.124-2.049 3.035-.834 1.062-1.593 1.062-2.428 2.048-.076.152-2.731 1.973-2.807 2.05-1.138.986-7.284 5.538-6.753.834.53-1.67 2.352-5.919 2.807-7.664.455-1.973 1.518-6.525.38-8.422-2.656-1.67-5.464-1.063-7.968 1.214-1.062 1.062-3.87 3.566-4.932 4.704zM241.873 53.795c-.076.228-.076.38-.304.455-1.138 1.366-2.124 2.808-2.807 4.477-.683 1.366-1.138 2.732-1.29 4.174-.152 1.441-.076 2.807.076 4.173l.683 2.049c.758 1.29 1.669 2.276 3.035 2.428.986.151 2.049.227 3.11-.076.228-.152.608-.304.76-.304.834-.227 1.517-.759 2.124-1.441.076-.228.304-.38.456-.456l.53-.38c.456-.303.76-.834 1.063-1.289.531-.683 1.062-1.366 1.442-2.276.53-1.29 1.214-2.504 1.441-3.794.076-.152.152-.228.152-.38 0-.151.228-.227.455-.227h.228c2.732 0 9.712.076 11.989-2.353.303-.303-.455-.455-.228-.834.076-.152.152-.455 0-.683l-.531.303-1.214.607c-3.642.607-5.084.076-8.802.304-.607 0-1.062-.531-.835-.986.228-.835 0-1.67.076-2.58 0-.076-.076-.683-.076-.987-.151-.607-.151-1.138-.227-1.82-.152-.76-.228-1.518-.456-2.201-.303-.531-.455-1.063-.682-1.67-.38-.986-.835-1.669-1.518-2.276-.531-.304-.986-.759-1.442-1.138-.38-.304-2.048-1.821-2.655-1.821-.835-.152-1.746-.076-2.429.38-.91.53-1.669.986-2.276 1.517-.303.076-.455.227-.531.38-.683 1.213-1.062 2.427-.835 3.717.228 1.745.607 3.415 1.442 4.78.076.076.076.152.076.228zm9.03-1.442c.91 5.084-3.112 6.602-5.312 2.277-1.897-2.049-3.87-5.995-1.821-8.878.531-.531 2.2-2.125 3.11-1.366.532.304.911.607 1.367.987.455.227.683.607.986.91.531.455.835 1.062 1.062 1.821.228.835.38 1.518.532 2.428.227.531.227 1.214.075 1.821zm-5.388 9.713c.986-1.29 1.821-1.973 3.566-1.214-.227.531-.38 1.214-.758 1.82-.76 1.746-1.67 3.491-2.96 4.857l-.303.228c-.076.076-.076.076-.152.076-.38-.152-.683-.532-.835-.91-.076-.153-.227-.229-.076-.38 0-.38 0-.835.076-1.214.456-1.366.607-2.05 1.442-3.263zm7.891-8.347v.076c-.075-.303-.075-.228 0-.076zm.076.152s-.076 0-.076-.076c0 .076.076.076.076.076zM273.21 64.873c-.758-.227-1.29-.91-1.745-1.593-.379-.455-.379-1.062-.075-1.821l.227-.683c.076-1.594 1.214-2.808 1.442-4.25 0-.075.076-.151.152-.151.607-.683 1.138-1.442 1.745-1.973 1.138-.986 2.276-1.82 3.49-2.731.531-.532 1.29-.987 1.67-1.594.379-.38.834-.835 1.214-.986.076-.076.303-.228.38-.38.91-.759 1.744-1.67 2.73-2.352.76-.38 1.367-1.062 2.05-1.67.303-.303.53-.758.682-.834.456-.152.304-.531.607-.759.76-.834 1.594-1.67 2.277-2.504.303-.227.53-.53.758-.986.76-1.366 1.518-2.808 2.05-4.325.682-2.125.682-4.022.303-5.691-.456-1.897-1.594-3.339-2.656-4.553-1.214-1.29-2.808-1.593-4.477-1.593-3.035-.076-5.843 1.441-8.422 3.794-1.139.986-2.05 2.124-2.656 3.566-.38.986 0 1.973.759 2.049l.986.303c.759.38 1.518.076 2.049-.91l.607-.532c1.897-1.669 3.718-3.262 5.918-3.49a14.648 14.648 0 012.58 0c.759 0 1.138.607 1.214 1.518 0 .758-.151 1.441-.53 2.2a12.524 12.524 0 01-2.201 2.96c-1.594 1.593-3.339 3.186-4.932 4.628-2.58 2.125-5.16 4.022-7.285 6.677-1.82 2.049-3.263 4.174-4.249 6.753-.835 1.973-1.366 3.87-1.29 5.767 0 1.138 0 2.2-.076 3.339-.076.91.076 1.67.38 2.276.379.683.91 1.366 1.365 1.897.607.683 1.214.987 2.2.987.38-.683.684-1.29 1.215-2.125zm-3.414 12.369c.304-.532.759-.911 1.138-1.366.683-1.063 1.442-2.125 2.277-2.96.683-.53.91-1.29 1.138-2.048.076-.38.152-.835-.076-1.063-.455-.379-1.062-.91-1.518-1.214-.303-.151-.91-.227-1.29.228-.91.91-1.82 1.897-2.58 3.263-.379.834-.834 1.745-.91 2.731 0 .456.076.835.304 1.139.455.303.834.758 1.517 1.29zm-.986-19.653c-.152-.531 0-1.138.227-1.821.38-1.214.987-2.352 1.442-3.642.531-1.214 1.214-2.352 2.2-3.339l3.415-3.794.759-.683.152.152-.228.38c-1.214 1.441-2.504 3.035-3.87 4.552 0 .152-.227.304-.38.304-.454.076-.606.38-.834.91-.38 1.063-.759 2.125-1.214 3.111-.455.91-.683 1.897-1.062 2.884-.152.455-.304.683-.456 1.062-.075 0-.075-.076-.151-.076z" stroke-width=".07588"/></g></svg>