<svg width="320" height="45" viewBox="0 0 320 45" xmlns="http://www.w3.org/2000/svg"><g stroke="#000"><path d="M129.072 30.784c.064-.16.224-.32.256-.448.096-.416.384-.768.672-1.12.512-.544 1.024-1.12 1.344-1.76l.32-.448c.448-.64.96-1.28 1.376-1.92.32-.48.576-1.024.896-1.504.384-.544.736-1.056.992-1.6.032-.032.064-.064.064-.096.608-.768.992-1.632 1.664-2.336l.096-.128c.672-.992 1.344-1.984 1.984-2.976.192-.256.288-.544.448-.768.352-.544.768-1.056 1.12-1.6.096-.096.16-.224.224-.352.192-.288.352-.608.544-.928.096-.16.192-.32.256-.48.096-.224.128-.48.224-.736.128-.352.064-.48-.288-.448-.256 0-.544.096-.8.16a.571.571 0 00-.384.288c-.224.32-.448.608-.64.928l-1.92 2.848-1.344 1.952c-.448.608-.896 1.184-1.312 1.792-.736 1.056-1.504 2.112-2.208 3.2-.32.416-.576.864-.864 1.28-.384.736-2.464 5.44-2.752 2.496 0-.16-.032-.352.032-.544.032-.224.128-.448-.128-.512-.032 0 0-.096 0-.224-.096.096-.16.192-.224.224-.288.128-.448.32-.416.608 0 .032-.128.096-.256.224.096-.672-.16-1.152.064-1.888.128.128.288.16.32.256.064.192.064.416.096.608.384-.192.672-.672.544-.992-.096 0-.192-.032-.288-.032.032-.096.064-.16.064-.192.32-.576.352-1.088.224-1.536-.064-.256-.128-.448-.096-.704 0-.128-.064-.224-.096-.352l-.32.48c-.032.064-.096.128-.096.192 0 .544-.032 1.088-.032 1.632-.032.192 0 .384-.256.576-.192-.32-.224-.704-.192-1.056.032-.32-.032-.64.16-.992.16-.288.224-.608.288-.896.064-.32.064-.64.064-.928 0-.256.064-.512.256-.768.128-.192.224-.448.256-.64 0-.544 0-1.12-.096-1.632a1.35 1.35 0 00-.384-.8c-.352-.352-.8-.64-1.344-.768-.576-.16-1.152-.224-1.664-.48-.032-.032-.096-.032-.128-.032l-1.888-.288c-.096 0-.224.032-.416.032.096.16.096.224.16.288l.32.256c.096.096.16.192.096.384a.424.424 0 00.096.352c.096.128.224.192.384.256.16.096.256.224.256.416.032.992.096 1.952.096 2.944 0 .8-.096 1.6-.128 2.4v.544c-.032.768-.032 1.536-.032 2.304 0 .736 0 1.472.032 2.208l.128 2.56c.032.544.096 1.024.48 1.376.352.288.736.512 1.216.64.32.128.736.096 1.184-.192.16-.096.384-.16.544-.192.32-.032.48-.224.64-.512zm-4.192-1.76c.032-.096.032-.16.032-.256.16.416.288.832.128 1.376-.288-.096-.096-.32-.128-.48-.224-.032-.224-.032-.288-.544zm3.136-2.752c0 .192-.032.384-.032.576-.192-.096-.128-.288-.128-.48 0-.032.096-.064.16-.096zm.064-.096a.25.25 0 01.128-.128c0 .032.032.064.032.064a.25.25 0 01-.128.128c-.032 0-.064 0-.096.032zM149.008 23.424c-.416.416-1.056 1.472-1.472 1.888l-.512.448-.704.416c-.192.128-.416.224-.608.32-.224.096-.448.128-.672.16a.336.336 0 01-.288-.16 4.012 4.012 0 01-.288-.8c-.032-.224 0-.448.096-.672l.448-.896c.032-.064.064-.096.064-.16-.032-.32-.064-.64-.288-.928l-.192-.192c-.192-.224-.416-.256-.704-.224l-.672 1.088c-.16.256-.352.48-.544.704l-.256.288a1.96 1.96 0 01-.48.544 9.949 9.949 0 00-1.056.928l-.128.096c0-.064-.032-.096 0-.128.064-.352.192-.704.384-1.056.032-.064.064-.128.128-.192l.32-.448c.256-.352.48-.704.768-1.024l.384-.416c.288-.416.704-.736 1.056-1.088v-.032c.256-.192.512-.384.8-.512.288-.16.352-.352.288-.64l-.096-.256c-.128-.224-.352-.384-.544-.576a.244.244 0 00-.16-.064c-.16 0-.288-.16-.448-.16 0 0-.032 0-.064-.032-.064-.128-.192-.128-.352-.16-.064 0-.128-.032-.192-.064-.224-.064-.48-.064-.672-.16h-.096c-.224 0-.416.032-.608.064a.764.764 0 00-.288.064c-.48.288-.864.608-1.216.992-.48.576-.992 1.184-1.408 1.824-.032.032-.064.064-.064.096-.32.352-.544.768-.768 1.184-.224.448-.32.928-.256 1.44.096.992.608 1.696 1.536 2.08.16.064.32.128.48.224.416.224.864.224 1.312.096.256-.096.512-.128.704-.384 0 0 .032-.032.064-.032l.352-.224c.192-.16.416-.288.672-.416.192.256.48.416.768.544l.16.096c.32.256.704.32 1.088.448h.288c.256-.064.512-.064.736-.16.256-.096.512-.096.8-.16.224-.064.416-.16.608-.32.192-.192.448-.384.64-.608.032-.064.096-.096.16-.128.16-.096.288-.192.384-.384.032-.096.128-.16.192-.224l.352-.416c.064-.032.096-.128.192-.16.16-.128.48-.896.512-1.12-.16-.16-.32-.288-.544-.32zM150.224 20.768c-.096.192-.128.32-.096.448.064.224-.032.352-.128.544 0 0-.064.096-.064.16-.192.448-.768 1.152-1.024 1.792-.384.64.288-.032.288-.032-.16.224-.192.416-.352.64-.032.032-.064.16-.096.16-.224.032-.16.192-.224.224 0 .192-.064.352-.096.512-.128.256-.064.992-.16 1.376 0 .16 0 .384.064.576 0 .416.16.864.32 1.28.288.32.608.576.928.704.48.192.896.64 1.344.48 1.408.544 3.584-1.376 3.904-1.792 1.088-.64 1.568-2.4 2.24-3.616-.448-.096-.096-.544-.256-.864-.096.16-.096.16-.096.192-.16.512-.512.896-.8 1.312-1.536 1.632-.576 1.984-3.232 2.944-.192.032-.352.096-.512-.032-.192-.064-.352-.192-.48-.256-.096-.128-.224-.256-.256-.48-.032-.288.096-1.92.096-2.24.032-.576.032-.448.288-1.088.032-.064.096-.16.096-.256.064-.32-.512.896-.384.512.16-.288.288-.672.416-.96l.16-.48c.256-.512.48-.896.672-1.312.096-.32.064-.544-.064-.704-.128-.128-.448-.288-.544-.416-.32-.192-1.12.384-1.472.448-.096.064-.16.096-.256.224l-.032.032c-.096.032-.128 0-.192-.032zm3.328-3.712a1.062 1.062 0 00-.512-.48c-.128-.032-.288-.064-.416-.128-.032-.032-.064 0-.128.032s-.128.032-.128-.032c-.032-.032-.096-.032-.16 0-.064 0-.128.064-.192.128l-.192.288c-.096.192-.256.352-.256.544 0 .032-.096.096-.096.16-.096.16-.16.256-.224.416-.032.128-.096.224-.096.32l-.096.128c.128.032.224.032.352.032.096 0 .16 0 .256.064.128.064.256.096.448-.032.064-.064.16-.128.224-.096.16-.032.416-.16.48-.256l.32-.384c.064-.064.064-.128.064-.16.032-.128.096-.192.16-.288.064-.064.096-.16.192-.256zM169.744 25.856c-.288 1.088-.128 1.632.032 2.624.192 1.088 2.784.96 3.392.608.096-.064.16-.16.416-.096.096-.096.128-.128.352-.224.288-.16.352-.192.576-.416.288-.128.32-.224.608-.288.64-.512 1.472-1.408 1.888-1.952.16-.064.128-.16.192-.224.224-.192.512-1.216.768-1.408l.192-.384c.128-.224-.128-1.184-.448-.608-.352.512-.544.896-.768 1.28-.608.992-1.92 2.24-2.656 2.56-1.12.352-2.24.064-2.144-.352 0-.128.128-.704.384-1.792.192-.256.16-.608.288-.896.128-.256.256-.544.224-.736.192-.288.128-.064.224-.288.288-.704.32-1.344.544-1.952-.096-.064-.032-.192-.096-.32-.288-.16.128-.192-.352-.16-.128-.032-.096-.064-.416.032-.192.256-.32.448-.416.736-.256.352-.544.736-.736 1.152-.16.352-.192.224-.384.64-.096.16-.16.352-.384.576-.256.32-.416.16-.672.512-.416.512-1.44.544-2.208.96-.192.064-.256-.48-.384-.64-.16-.128 0-.608.064-.864.16-.32.224-.608.288-.928.064-.192.128-1.088.288-1.312.192-.768.896-2.272 1.088-3.072 0-.128.032-.256-.064-.32-.128-.128-.128-.288-.256-.32a.81.81 0 00-.704-.352c-.32.032.032.256-.448.512-.16.16-.384.16-.608.256-.16.096-.32.16-.416.384-.256.384-.416.736-.576 1.088-.288.672-2.016 3.328-2.176 4.064-.192.512-.256 1.088-.16 1.344.16 1.056.192 1.28.992 1.76.224.128.96.288 1.248.288.352-.096 1.056-.064 1.6-.352.544-.352 1.376-.8 1.824-1.248zM183.504 24.8a4.47 4.47 0 00.288-.544c.16-.256.288-.544.48-.8.192-.32.448-.576.736-.864.256-.288.448-.608.608-.992.128-.288.288-.48.48-.704.32-.256.64-.576.96-.896.128-.096.224-.16.288-.256.128-.128.256-.128.352-.032.064.192-.032.352-.16.48-.224.448-.512.832-.736 1.248-.928 1.344-1.696 2.752-2.208 4.352a2.899 2.899 0 00-.192 1.024c-.032.448.064.736.288.96.192.224.416.384.672.416.544.064 1.12-.096 1.632-.512.128-.128.224-.256.32-.384.288-.32.672-.512.864-.896.064-.096.128-.096.16-.16.384-.288.736-.544 1.024-.896.064-.128.16-.16.224-.224l.768-.64c.16-.128.32-.224.48-.128.128-.16.192-.32.32-.448.192-.288.192-.288.224-.608.128-.096.288-.16.448-.224.16-.032.288-.256.48-.288 0 .096.032.128 0 .192 0 .096-.032.224-.064.32-.288.768-.48 1.536-.64 2.336-.128.48-.128.96.032 1.344.192.448.704.8 1.024 1.088.16.128.928.192 1.088.192.352 0 1.696-.96 1.856-1.312.064-.032.16-.064.16-.16.224-.224.416-.448.704-.64.032-.064.128-.16.128-.288.16-.384.352-.704.544-1.056.064-.064.064-.16.128-.16.096.064.256-.608.256-.48.064-.544-.096-.256 0-.736.032-.032 0-.032-.064-.128-.096.096-.16.256-.192.416-.448.768-.928 1.504-1.504 2.144-.32.416-1.984 1.6-2.464 1.504-.16-.064-.224-.16-.224-.384a5.473 5.473 0 010-1.024c.064-.352.128-.736.16-1.12.128-.16 0-.416.192-.512.096-.256.16-.48.16-.704a3.342 3.342 0 010-.8c-.128-.16-.224-.32-.384-.384-.224-.096-.288-.32-.448-.448-.128-.128-.288-.16-.48 0-.096.096-.16.16-.256.192-.576.32-1.12.768-1.632 1.248-.544.576-1.12 1.088-1.76 1.44a.687.687 0 01-.224.128c.064-.352.192-.64.256-.928.288-.672.48-1.344.704-2.08.096-.352.096-.672.032-.992-.032-.256-.096-.448-.16-.672-.096-.256-.192-.448-.352-.576-.256-.224-.48-.512-.736-.768-.064-.064-.16-.096-.288-.16-.224-.032-.512 0-.8.128-.096.032-.224.128-.352.256-.672.736-1.344 1.472-1.952 2.304-.192.288-.384.48-.608.736-.544.64-1.056 1.28-1.632 1.92l-.992 1.152c-.032.032-.096.032-.16.064.128-.256.192-.512.224-.736.064-.064.064-.096.064-.096 0-.032.032-.064.032-.064.288-.64.48-1.28.672-1.92l.128-.48c.128-.256.192-.544.32-.8.16-.32.192-.704.128-1.056l-.16-.928c-.128-.544-.416-.992-.64-1.472 0-.064-.096-.128-.16-.16-.384-.224-.736-.48-1.088-.704-.128-.128-.288-.128-.448-.096-.128.256-.192.448-.32.64-.384.672-.768 1.376-.96 2.112-.032.096-.064.128-.064.224-.416.864-.768 1.792-1.184 2.656-.192.48-.384.96-.544 1.504-.256.992-.448 1.984-.512 2.976-.064.16-.064.32-.064.48.064.704.256 1.248.768 1.536.32.16.64.192.992.192.384-.032.736-.192 1.088-.384.16-.128.32-.256.48-.288.096 0 .16-.096.16-.128.096-.224.256-.32.352-.448.224-.192.448-.384.576-.704.128-.192.288-.352.448-.576.032-.064.064-.096.064-.16a.557.557 0 01.32-.416c.128-.128.192-.288.352-.448.288.064.448-.128.576-.448 0-.032 0-.064.032-.064.032-.096.128-.096.16-.064.032 0 .096.064.128.064z" stroke-width=".032"/></g></svg>